<svg width="1130" height="710" viewBox="0 0 1130 710" fill="none" xmlns="http://www.w3.org/2000/svg">
<style>
g#atosh1,#atosh2,#atosh3{
    animation: atosh 3s linear infinite alternate;
}
@keyframes atosh{

    0% {         
        transform: translate(0px,0px);        
        opacity: 1; 
        display:none;
    }    
    100%{
        transform: translate(0px,500px);
        opacity:0; 
        display:block;
    }
}
</style> 
<g id="undraw_new_decade_n4qd 1" clip-path="url(#clip0)">
<g id="2020">
<path id="Vector" d="M1092.22 553.12L837.58 709.96H309.14L176 493.8L813.74 101L1092.22 553.12Z" fill="url(#paint0_linear)"/>
<path id="Vector_2" d="M877.456 453.321L876.998 467.205L873.335 496.9L860.973 498.828L857.768 486.873V471.447C857.768 471.447 864.636 460.649 862.805 453.321C860.973 445.994 877.456 453.321 877.456 453.321Z" fill="#FBBEBE"/>
<path id="Vector_3" d="M875.186 454.513C883.55 454.513 890.33 447.733 890.33 439.369C890.33 431.005 883.55 424.225 875.186 424.225C866.822 424.225 860.042 431.005 860.042 439.369C860.042 447.733 866.822 454.513 875.186 454.513Z" fill="#2F2E41"/>
<path id="Vector_4" d="M837.622 665.95L838.537 684.723L848.61 681.976L847.695 666.866L837.622 665.95Z" fill="#FBBEBE"/>
<path id="Vector_5" d="M905.844 664.119L910.652 683.578L918.893 681.747L914.544 662.745L905.844 664.119Z" fill="#FBBEBE"/>
<path id="Vector_6" d="M824.801 554.23L822.97 560.182C822.97 560.182 817.475 576.208 822.97 577.124C828.464 578.039 829.838 562.472 829.838 562.472L833.043 556.977L824.801 554.23Z" fill="#FBBEBE"/>
<path id="Vector_7" d="M830.754 537.289L822.97 555.146L834.757 560.338L841.285 537.289H830.754Z" fill="#575A89"/>
<path id="Vector_8" d="M886.156 521.721L900.808 597.728L918.207 664.577L894.855 668.698L865.094 570.713L849.984 669.613L829.838 667.324L834.874 563.388L845.863 518.974L886.156 521.721Z" fill="#2F2E41"/>
<path id="Vector_9" d="M849.984 683.349C850.9 683.349 855.479 688.386 854.105 693.88C853.201 697.798 852.589 701.777 852.273 705.785C852.273 705.785 835.561 711.508 826.862 706.014C818.162 700.52 835.79 694.338 835.79 694.338L836.706 682.434L849.984 679.686V683.349Z" fill="#2F2E41"/>
<path id="Vector_10" d="M920.267 683.349C921.183 683.349 925.762 688.386 924.388 693.88C923.484 697.798 922.872 701.777 922.556 705.785C922.556 705.785 905.844 711.508 897.145 706.014C888.445 700.52 906.073 694.338 906.073 694.338L906.989 682.434L920.267 679.686V683.349Z" fill="#2F2E41"/>
<path id="Vector_11" d="M870.588 455.33C877.416 455.33 882.951 449.795 882.951 442.968C882.951 436.14 877.416 430.605 870.588 430.605C863.761 430.605 858.226 436.14 858.226 442.968C858.226 449.795 863.761 455.33 870.588 455.33Z" fill="#FBBEBE"/>
<path id="Vector_12" d="M866.467 489.213L875.625 457.62L878.83 459.451L896.687 504.322L888.445 526.3C888.445 526.3 848.153 523.553 848.153 523.095C848.153 522.637 852.273 469.982 852.273 469.982L860.269 460.734L860.515 467.235L866.467 489.213Z" fill="#575A89"/>
<path id="Vector_13" d="M900.35 460.825C900.35 460.825 899.892 456.704 896.687 457.62C893.482 458.535 877.104 457.487 877.104 457.487C877.104 457.487 872.42 463.114 878.372 474.561C884.324 486.008 890.963 564.99 890.963 564.99L912.254 559.725L901.265 488.297L900.35 460.825Z" fill="#2F2E41"/>
<path id="Vector_14" d="M863.033 458.306L841.285 475.934L842.658 506.612L833.501 568.882L845.405 571.629L862.347 461.283L863.033 458.306Z" fill="#2F2E41"/>
<path id="Vector_15" d="M898.518 504.78L888.445 507.985C888.445 507.985 881.119 523.095 886.156 524.926C891.192 526.758 893.245 513.5 893.245 513.5L902.639 510.275L898.518 504.78Z" fill="#FBBEBE"/>
<path id="Vector_16" d="M844.032 475.476L843.56 473.95L841.285 475.476C838.98 479.431 837.428 483.777 836.706 488.297C835.79 495.165 828.922 540.036 828.922 540.036L842.658 538.663L844.032 475.476Z" fill="#2F2E41"/>
<path id="Vector_17" d="M912.254 498.828L896.687 504.322L901.723 514.395L920.038 506.612L912.254 498.828Z" fill="#575A89"/>
<path id="Vector_18" d="M895.313 459.909C895.771 459.909 940.642 486.008 935.606 496.539C932.502 502.874 927.098 507.787 920.496 510.275L909.507 498.828L915.002 494.707L898.06 483.718L895.313 459.909Z" fill="#2F2E41"/>
<path id="Vector_19" d="M888.111 434.769C887.879 431.935 886.522 429.03 884.012 427.692C885.272 425.161 886.399 422.273 885.568 419.57C885.231 418.522 884.621 417.582 883.8 416.847C882.979 416.113 881.978 415.611 880.898 415.392C879.694 415.226 878.471 415.242 877.27 415.439L871.613 416.08C869.761 416.153 867.948 416.641 866.31 417.508C865.498 418.022 864.817 418.72 864.323 419.545C863.83 420.37 863.536 421.299 863.467 422.259C863.398 423.218 863.555 424.179 863.926 425.067C864.297 425.954 864.87 426.742 865.601 427.367C861.643 430.533 858.997 432.936 857.196 437.674C860.216 435.213 863.99 433.862 867.886 433.847C870.535 433.704 873.135 434.599 875.134 436.343C877.133 438.086 878.374 440.54 878.592 443.184C878.569 444.51 878.685 445.835 878.94 447.137C879.325 448.407 880.484 449.596 881.798 449.411C881.615 449.436 880.494 446.068 881.283 444.514L881.296 444.489C881.47 444.168 881.756 443.922 882.1 443.799C882.407 443.681 882.735 443.63 883.063 443.649C883.391 443.668 883.711 443.757 884.002 443.909C884.293 444.062 884.549 444.274 884.751 444.533C884.954 444.791 885.099 445.09 885.178 445.409C885.617 447.096 886.32 449.248 886.934 448.677C887.737 447.929 887.399 441.332 887.616 440.309C888.049 438.496 888.216 436.63 888.111 434.769V434.769Z" fill="#2F2E41"/>
<path id="Vector_20" d="M883.95 427.647C883.95 427.647 871.507 428.458 865.555 427.376Z" fill="#D0CDE1"/>
<path id="Vector_21" d="M883.245 425.982C884.505 423.451 885.631 420.562 884.8 417.86C884.412 416.642 883.653 415.575 882.629 414.809C883.411 415.168 884.11 415.686 884.682 416.33C885.253 416.974 885.684 417.729 885.948 418.549C886.779 421.251 885.653 424.14 884.393 426.671C883.393 426.522 885.754 427.32 883.245 425.982Z" fill="#2F2E41"/>
<path id="Vector_22" d="M104.85 606.295L123.35 588.165C116.05 586.345 108.969 583.74 102.23 580.395C79.1448 568.922 61.0724 549.377 51.44 525.465C45.6893 511.122 43.18 495.686 44.0916 480.26C45.0033 464.835 49.3135 449.801 56.7137 436.236C64.1139 422.671 74.4211 410.909 86.8977 401.792C99.3744 392.676 113.712 386.429 128.884 383.501C144.057 380.572 159.689 381.034 174.663 384.852C189.636 388.671 203.58 395.752 215.497 405.588C227.414 415.425 237.01 427.775 243.597 441.753C250.184 455.731 253.6 470.993 253.6 486.445C253.6 488.685 253.527 490.912 253.38 493.125C253.111 497.417 252.58 501.688 251.79 505.915C251.166 512.421 249.9 518.849 248.01 525.105C239.72 552.905 220.16 578.615 199.46 598.595L148.34 647.935H195.52C211.3 647.938 226.432 654.207 237.59 665.365C248.748 676.523 255.017 691.655 255.02 707.435H62.36C62.3588 671.03 76.3793 636.024 101.51 609.685C102.6 608.535 103.713 607.405 104.85 606.295Z" fill="#6C63FF"/>
<path id="Vector_23" d="M231.2 421.675L186.13 447.695L96.52 499.435L51.44 525.465C48.2108 517.412 46.0003 508.986 44.86 500.385L97.51 469.985L160.15 433.825L212.78 403.425C219.653 408.721 225.84 414.852 231.2 421.675V421.675Z" fill="#3F3D56"/>
<path id="Vector_24" d="M253.38 493.125C253.111 497.417 252.58 501.688 251.79 505.915C251.166 512.421 249.9 518.849 248.01 525.105L101.51 609.685C102.6 608.535 103.713 607.405 104.85 606.295L123.35 588.165C116.05 586.345 108.969 583.74 102.23 580.395L253.38 493.125Z" fill="#3F3D56"/>
<path id="Vector_25" d="M148.771 540.275C178.502 540.275 202.603 516.174 202.603 486.443C202.603 456.713 178.502 432.611 148.771 432.611C119.041 432.611 94.9396 456.713 94.9396 486.443C94.9396 516.174 119.041 540.275 148.771 540.275Z" fill="white"/>
<path id="Vector_26" d="M544.85 602.275C544.845 629.466 534.275 655.592 515.371 675.137C496.468 694.682 470.709 706.118 443.533 707.03C416.357 707.942 389.89 698.259 369.718 680.026C349.547 661.792 337.249 636.435 335.42 609.305C335.26 606.985 335.18 604.635 335.18 602.275C335.181 576.874 344.403 552.337 361.134 533.224C377.864 514.111 400.964 501.721 426.141 498.358C451.319 494.995 476.861 500.886 498.021 514.938C519.182 528.989 534.522 550.245 541.19 574.755V574.765C543.564 583.489 544.791 592.484 544.84 601.525V601.535C544.85 601.785 544.85 602.025 544.85 602.275Z" fill="#6C63FF"/>
<path id="Vector_27" d="M498.41 515.205L440.81 548.455L392.98 576.075L335.42 609.305C335.26 606.985 335.18 604.635 335.18 602.275C335.175 594.47 336.04 586.688 337.76 579.075L471.06 502.115C480.765 505.125 489.978 509.535 498.41 515.205V515.205Z" fill="#3F3D56"/>
<path id="Vector_28" d="M544.84 601.525V601.535L478.68 639.725L478.66 639.735L453.09 654.505L386.95 692.695C379.156 688.118 371.99 682.548 365.63 676.125L412.94 648.805L493.85 602.095L541.19 574.765C543.564 583.489 544.791 592.484 544.84 601.525V601.525Z" fill="#3F3D56"/>
<path id="Vector_29" d="M440.015 656.106C469.745 656.106 493.847 632.004 493.847 602.274C493.847 572.543 469.745 548.442 440.015 548.442C410.284 548.442 386.183 572.543 386.183 602.274C386.183 632.004 410.284 656.106 440.015 656.106Z" fill="white"/>
<path id="Vector_30" d="M684.04 592.175L686.09 590.165C664.441 584.767 645.081 572.597 630.831 555.428C616.582 538.259 608.187 516.988 606.87 494.715C606.74 492.645 606.677 490.555 606.68 488.445C606.676 460.773 617.614 434.221 637.109 414.582C656.604 394.942 683.074 383.808 710.745 383.607C738.417 383.406 765.046 394.156 784.823 413.511C804.601 432.865 815.923 459.255 816.32 486.925C816.34 487.435 816.34 487.935 816.34 488.445C816.339 494.977 815.733 501.495 814.53 507.915C814.227 511.185 813.75 514.436 813.1 517.655V517.665C806.84 549.065 785.23 578.365 762.2 600.595L711.08 649.935H758.26C774.04 649.938 789.172 656.207 800.33 667.365C811.488 678.523 817.757 693.655 817.76 709.435H625.09C625.091 690.597 628.85 671.949 636.148 654.582C643.445 637.215 654.135 621.479 667.59 608.295L684.04 592.175Z" fill="#6C63FF"/>
<path id="Vector_31" d="M789.36 418.235L611.77 520.765C609.031 512.326 607.384 503.572 606.87 494.715L769.27 400.955C776.67 405.843 783.42 411.65 789.36 418.235V418.235Z" fill="#3F3D56"/>
<path id="Vector_32" d="M816.34 488.445C816.339 494.977 815.733 501.495 814.53 507.915C814.227 511.185 813.75 514.436 813.1 517.655V517.665L684.04 592.175L686.09 590.165C676.125 587.682 666.582 583.74 657.77 578.465L816.32 486.925C816.34 487.435 816.34 487.935 816.34 488.445Z" fill="#3F3D56"/>
<path id="Vector_33" d="M711.509 542.275C741.24 542.275 765.341 518.174 765.341 488.443C765.341 458.713 741.24 434.611 711.509 434.611C681.779 434.611 657.677 458.713 657.677 488.443C657.677 518.174 681.779 542.275 711.509 542.275Z" fill="white"/>
<path id="Vector_34" d="M1116 604.605C1116 605.345 1115.99 606.095 1115.98 606.835C1115.41 633.586 1104.64 659.107 1085.86 678.171C1067.09 697.235 1041.74 708.398 1015 709.373C988.257 710.349 962.157 701.063 942.043 683.417C921.93 665.772 909.324 641.103 906.81 614.465C906.49 611.215 906.34 607.935 906.34 604.605C906.331 585.361 911.619 566.485 921.627 550.048C931.635 533.611 945.975 520.246 963.075 511.419C980.176 502.592 999.376 498.643 1018.57 500.006C1037.77 501.369 1056.22 507.991 1071.9 519.145C1085.55 528.827 1096.67 541.64 1104.35 556.51C1112.02 571.379 1116.02 587.872 1116 604.605V604.605Z" fill="#6C63FF"/>
<path id="Vector_35" d="M1071.9 519.145L906.81 614.465C906.49 611.215 906.34 607.935 906.34 604.605C906.332 597.946 906.965 591.302 908.23 584.765L1045.48 505.525C1054.89 508.781 1063.79 513.367 1071.9 519.145Z" fill="#3F3D56"/>
<path id="Vector_36" d="M1116 604.605C1116 605.345 1115.99 606.095 1115.98 606.835L960.68 696.495C952.669 692.089 945.269 686.653 938.67 680.325L1113.01 579.665C1115.01 587.828 1116.01 596.202 1116 604.605V604.605Z" fill="#3F3D56"/>
<path id="Vector_37" d="M1011.17 658.439C1040.9 658.439 1065 634.337 1065 604.607C1065 574.876 1040.9 550.775 1011.17 550.775C981.439 550.775 957.338 574.876 957.338 604.607C957.338 634.337 981.439 658.439 1011.17 658.439Z" fill="white"/>
<path id="Vector_38" d="M333.902 574.338V583.229C333.902 583.229 270.263 578.55 266.988 573.402C263.712 568.255 271.199 534.096 271.199 534.096L326.415 544.858L333.902 574.338Z" fill="#2F2E41"/>
<path id="Vector_39" opacity="0.3" d="M333.902 574.338V583.229C333.902 583.229 270.263 578.55 266.988 573.402C263.712 568.255 271.199 534.096 271.199 534.096L326.415 544.858L333.902 574.338Z" fill="black"/>
<path id="Vector_40" d="M278.686 599.139L313.313 647.804L317.993 651.08L304.422 671.201L261.84 621.6C261.84 621.6 249.206 609.433 255.289 602.414C261.372 595.395 278.686 599.139 278.686 599.139Z" fill="#2F2E41"/>
<path id="Vector_41" d="M315.653 651.08C315.653 651.08 322.672 648.272 326.883 653.887L320.8 667.925C320.8 667.925 305.826 690.854 299.743 690.386C293.66 689.918 295.064 681.028 296.935 680.092C298.807 679.156 303.45 670.068 303.45 670.068L315.653 651.08Z" fill="#2F2E41"/>
<path id="Vector_42" d="M305.799 685.75L305.826 699.745C304.522 702.573 302.245 704.837 299.41 706.126C296.576 707.414 293.372 707.641 290.384 706.764C279.154 703.956 288.513 695.066 288.513 695.066L291.32 687.579L305.799 685.75Z" fill="#2F2E41"/>
<path id="Vector_43" d="M309.336 442.146C317.089 442.146 323.374 435.861 323.374 428.108C323.374 420.355 317.089 414.07 309.336 414.07C301.583 414.07 295.298 420.355 295.298 428.108C295.298 435.861 301.583 442.146 309.336 442.146Z" fill="#A0616A"/>
<path id="Vector_44" d="M296.935 427.874L294.128 446.124L307.23 464.841L316.589 436.297L296.935 427.874Z" fill="#A0616A"/>
<path id="Vector_45" d="M300.679 451.739L313.29 446.358L315.185 538.307L275.878 535.499L289.448 447.527L294.74 442.146L300.679 451.739Z" fill="#575A89"/>
<path id="Vector_46" d="M301.147 460.162L301.496 456.649L305.358 457.354L314.033 444.094L321.268 447.995L340.921 460.63L332.499 514.442V551.409C332.499 551.409 342.793 570.595 334.37 583.229L322.672 558.896C322.672 558.896 300.679 520.993 301.147 509.295C301.615 497.597 301.147 460.162 301.147 460.162Z" fill="#2F2E41"/>
<path id="Vector_47" d="M292.724 455.014L294.892 441.156L290.384 444.252L269.327 454.079L259.033 580.421L283.833 589.312C283.833 589.312 300.211 466.245 292.724 455.014Z" fill="#2F2E41"/>
<path id="Vector_48" d="M274.007 532.224L319.864 534.096C319.864 534.096 324.076 559.364 320.8 579.486C317.525 599.607 305.358 688.983 305.358 688.983H289.448L295.532 617.856L293.66 574.806L280.09 601.011L255.289 602.414L274.007 532.224Z" fill="#2F2E41"/>
<path id="Vector_49" d="M314.97 403.629C316.061 403.452 317.267 402.945 318.192 403.55C318.668 403.957 319.049 404.464 319.307 405.035C320.378 406.783 322.253 407.837 323.945 408.994C325.638 410.151 327.326 411.666 327.633 413.693C327.897 415.438 327.07 417.167 327.045 418.932C327.014 421.165 328.225 423.585 327.081 425.503C326.559 426.38 325.629 426.945 325.057 427.791C324.048 429.284 324.052 431.691 322.349 432.28C322.423 430.148 322.303 428.013 321.99 425.902C321.939 425.291 321.754 424.699 321.447 424.168C320.685 423.028 319.123 422.856 317.783 422.566C316.065 422.183 314.446 421.444 313.031 420.397C311.616 419.35 310.436 418.018 309.567 416.487C310.425 417.502 309.452 419.219 308.146 419.465C307.482 419.518 306.815 419.417 306.196 419.171C305.578 418.924 305.024 418.539 304.578 418.044C305.071 419.191 305.307 420.431 305.269 421.679C305.231 422.926 304.921 424.15 304.359 425.265C303.797 426.38 302.998 427.358 302.018 428.13C301.038 428.903 299.901 429.452 298.686 429.738C298.749 428.945 298.607 428.15 298.273 427.428C297.94 426.706 297.427 426.082 296.783 425.616C295.43 424.661 293.498 424.377 292.692 422.93C292.227 421.749 292.222 420.436 292.678 419.252L293.825 414.698C293.929 413.519 294.33 412.387 294.99 411.405C295.65 410.424 296.547 409.625 297.599 409.084L301.037 406.884C302.109 406.108 303.299 405.509 304.561 405.11C305.686 404.828 306.826 405.177 307.928 404.874C308.84 404.625 309.58 403.971 310.527 403.763C311.99 403.44 313.498 403.867 314.97 403.629Z" fill="#2F2E41"/>
<path id="Vector_50" d="M267.455 544.858C267.455 544.858 275.41 565.447 266.988 566.383C258.565 567.319 259.033 548.134 259.033 548.134L267.455 544.858Z" fill="#A0616A"/>
<path id="Vector_51" d="M274.007 454.546L271.755 452.946L269.327 453.611L256.693 500.872L252.949 552.345L270.263 545.326L269.327 508.827L274.007 454.546Z" fill="#2F2E41"/>
<path id="Vector_52" d="M323.608 552.813L318.461 558.428L316.171 548.344L323.608 552.813Z" fill="#A0616A"/>
<path id="Vector_53" d="M336.71 461.098L339.084 459.448L340.921 460.162C340.921 460.162 356.831 506.019 353.556 517.25C350.28 528.48 325.48 558.428 325.48 558.428L314.249 546.262L335.306 514.91L328.755 507.423L336.71 461.098Z" fill="#2F2E41"/>
<path id="Vector_54" opacity="0.3" d="M294.358 631.579L292.188 656.95L294.358 621.164L295.532 622.814L294.358 631.579Z" fill="black"/>
<path id="Vector_55" opacity="0.3" d="M311.39 645.101L305.799 685.75L313.547 647.57L311.39 645.101Z" fill="black"/>
<path id="Vector_56" d="M1130 706.525H0V708.525H1130V706.525Z" fill="#3F3D56"/>
<path id="Vector_57" d="M599 625.525C613.912 625.525 626 613.437 626 598.525C626 583.613 613.912 571.525 599 571.525C584.088 571.525 572 583.613 572 598.525C572 613.437 584.088 625.525 599 625.525Z" fill="#3F3D56"/>
</g>
<g id="atosh2">
<path id="Vector_58" d="M882.445 119.289C882.445 119.289 845.485 135.983 838.397 151.393C831.309 166.802 882.445 119.289 882.445 119.289Z" fill="#6C63FF"/>
<path id="Vector_59" d="M881.644 102.614C881.644 102.614 847.584 98.0228 837.251 105.869C826.919 113.715 881.644 102.614 881.644 102.614Z" fill="#6C63FF"/>
<path id="Vector_60" d="M891.392 94.7474C891.392 94.7474 874.259 40.8007 878.41 35.4609C882.561 30.1211 891.392 94.7474 891.392 94.7474Z" fill="#6C63FF"/>
<path id="Vector_61" d="M897.867 106.61C897.867 106.61 907.062 52.0822 916.696 52.0822C926.329 52.0822 897.867 106.61 897.867 106.61Z" fill="#6C63FF"/>
<path id="Vector_62" d="M903.264 107.154C903.264 107.154 934.879 80.9554 999.65 88.9527C1064.42 96.9499 903.264 107.154 903.264 107.154Z" fill="#6C63FF"/>
<path id="Vector_63" d="M923.313 110.227C923.313 110.227 978.69 109.257 981.801 117.012C984.912 124.766 923.313 110.227 923.313 110.227Z" fill="#6C63FF"/>
<path id="Vector_64" d="M912.517 118.277C912.517 118.277 945.965 138.552 939.43 144.79C932.894 151.028 912.517 118.277 912.517 118.277Z" fill="#6C63FF"/>
<path id="Vector_65" d="M968.035 142.546C968.035 142.546 995.794 157.714 989.625 167.826C983.457 177.938 968.035 142.546 968.035 142.546Z" fill="#6C63FF"/>
<path id="Vector_66" d="M916.373 130.412C916.373 130.412 974.204 213.33 968.806 218.386C963.409 223.442 916.373 130.412 916.373 130.412Z" fill="#6C63FF"/>
<path id="Vector_67" d="M905.578 124.345C905.578 124.345 929.926 177.525 924.957 182.695C919.988 187.865 905.578 124.345 905.578 124.345Z" fill="#6C63FF"/>
<path id="Vector_68" d="M895.277 122.322C895.277 122.322 873.363 207.119 886.81 206.245C900.257 205.371 895.277 122.322 895.277 122.322Z" fill="#6C63FF"/>
<path id="Vector_69" d="M887.708 126.537C887.708 126.537 850.924 181.711 854.29 187.522C857.657 193.333 887.708 126.537 887.708 126.537Z" fill="#6C63FF"/>
<path id="Vector_70" d="M876.668 89.385C876.668 89.385 844.598 39.7071 814.943 44.5216C785.287 49.336 876.668 89.385 876.668 89.385Z" fill="#6C63FF"/>
<path id="Vector_71" d="M851.602 85.9191C851.602 85.9191 809.193 81.8743 812.277 91.9863C815.361 102.098 851.602 85.9191 851.602 85.9191Z" fill="#6C63FF"/>
<path id="Vector_72" d="M862.397 48.5047C862.397 48.5047 860.084 34.3479 856.229 37.3815C852.373 40.4151 862.397 48.5047 862.397 48.5047Z" fill="#6C63FF"/>
<path id="Vector_73" d="M901.465 58.5216C901.465 58.5216 912.046 0.214473 907.25 0.000582764C902.455 -0.213307 901.465 58.5216 901.465 58.5216Z" fill="#6C63FF"/>
<path id="Vector_74" d="M950.3 66.7063C950.3 66.7063 954.927 51.5383 959.553 55.5831C964.18 59.6279 950.3 66.7063 950.3 66.7063Z" fill="#6C63FF"/>
<path id="Vector_75" d="M906.349 201.196C906.349 201.196 900.18 260.857 911.746 259.845C923.313 258.834 906.349 201.196 906.349 201.196Z" fill="#6C63FF"/>
</g>
<g id="atosh1">
<path id="Vector_76" d="M254.511 277.252C254.511 277.252 219.52 288.623 212.81 299.12C206.099 309.616 254.511 277.252 254.511 277.252Z" fill="#6C63FF"/>
<path id="Vector_77" d="M253.752 265.895C253.752 265.895 221.507 262.767 211.726 268.112C201.944 273.456 253.752 265.895 253.752 265.895Z" fill="#6C63FF"/>
<path id="Vector_78" d="M262.98 260.536C262.98 260.536 246.761 223.791 250.691 220.154C254.62 216.517 262.98 260.536 262.98 260.536Z" fill="#6C63FF"/>
<path id="Vector_79" d="M269.11 268.617C269.11 268.617 277.815 231.475 286.935 231.475C296.055 231.475 269.11 268.617 269.11 268.617Z" fill="#6C63FF"/>
<path id="Vector_80" d="M274.22 268.987C274.22 268.987 304.149 251.142 365.468 256.589C426.786 262.037 274.22 268.987 274.22 268.987Z" fill="#6C63FF"/>
<path id="Vector_81" d="M293.2 271.08C293.2 271.08 345.625 270.42 348.57 275.702C351.516 280.983 293.2 271.08 293.2 271.08Z" fill="#6C63FF"/>
<path id="Vector_82" d="M282.98 276.564C282.98 276.564 314.645 290.373 308.458 294.622C302.27 298.871 282.98 276.564 282.98 276.564Z" fill="#6C63FF"/>
<path id="Vector_83" d="M335.539 293.094C335.539 293.094 361.818 303.426 355.978 310.313C350.138 317.201 335.539 293.094 335.539 293.094Z" fill="#6C63FF"/>
<path id="Vector_84" d="M286.63 284.829C286.63 284.829 341.378 341.308 336.268 344.752C331.159 348.196 286.63 284.829 286.63 284.829Z" fill="#6C63FF"/>
<path id="Vector_85" d="M276.41 280.696C276.41 280.696 299.461 316.919 294.756 320.441C290.052 323.963 276.41 280.696 276.41 280.696Z" fill="#6C63FF"/>
<path id="Vector_86" d="M266.658 279.319C266.658 279.319 245.913 337.077 258.643 336.482C271.373 335.886 266.658 279.319 266.658 279.319Z" fill="#6C63FF"/>
<path id="Vector_87" d="M259.493 282.19C259.493 282.19 224.669 319.771 227.856 323.729C231.043 327.687 259.493 282.19 259.493 282.19Z" fill="#6C63FF"/>
<path id="Vector_88" d="M249.041 256.884C249.041 256.884 218.681 223.046 190.606 226.325C162.531 229.605 249.041 256.884 249.041 256.884Z" fill="#6C63FF"/>
<path id="Vector_89" d="M235.531 229.039C235.531 229.039 233.341 219.396 229.691 221.462C226.041 223.528 235.531 229.039 235.531 229.039Z" fill="#6C63FF"/>
<path id="Vector_90" d="M272.516 235.862C272.516 235.862 282.533 196.146 277.993 196C273.453 195.855 272.516 235.862 272.516 235.862Z" fill="#6C63FF"/>
<path id="Vector_91" d="M318.749 241.436C318.749 241.436 323.129 231.105 327.509 233.86C331.889 236.615 318.749 241.436 318.749 241.436Z" fill="#6C63FF"/>
<path id="Vector_92" d="M277.14 333.043C277.14 333.043 271.3 373.68 282.25 372.991C293.2 372.303 277.14 333.043 277.14 333.043Z" fill="#6C63FF"/>
</g>
<g id="atosh3">
<path id="Vector_93" d="M555.12 259.687C555.12 259.687 520.13 271.058 513.42 281.555C506.709 292.051 555.12 259.687 555.12 259.687Z" fill="#6C63FF"/>
<path id="Vector_94" d="M554.362 248.33C554.362 248.33 522.117 245.202 512.335 250.547C502.554 255.891 554.362 248.33 554.362 248.33Z" fill="#6C63FF"/>
<path id="Vector_95" d="M563.59 242.971C563.59 242.971 547.371 206.226 551.301 202.589C555.23 198.952 563.59 242.971 563.59 242.971Z" fill="#6C63FF"/>
<path id="Vector_96" d="M569.72 251.052C569.72 251.052 578.425 213.91 587.545 213.91C596.665 213.91 569.72 251.052 569.72 251.052Z" fill="#6C63FF"/>
<path id="Vector_97" d="M574.83 251.422C574.83 251.422 630.363 223.74 633.61 238.435C636.857 253.13 574.83 251.422 574.83 251.422Z" fill="#6C63FF"/>
<path id="Vector_98" d="M593.81 253.515C593.81 253.515 646.235 252.855 649.18 258.137C652.125 263.418 593.81 253.515 593.81 253.515Z" fill="#6C63FF"/>
<path id="Vector_99" d="M583.59 258.999C583.59 258.999 615.255 272.808 609.068 277.057C602.88 281.306 583.59 258.999 583.59 258.999Z" fill="#6C63FF"/>
<path id="Vector_100" d="M636.148 275.529C636.148 275.529 662.428 285.861 656.588 292.748C650.748 299.636 636.148 275.529 636.148 275.529Z" fill="#6C63FF"/>
<path id="Vector_101" d="M587.24 267.264C587.24 267.264 641.988 323.743 636.878 327.187C631.769 330.631 587.24 267.264 587.24 267.264Z" fill="#6C63FF"/>
<path id="Vector_102" d="M577.02 263.131C577.02 263.131 600.071 299.354 595.366 302.876C590.662 306.398 577.02 263.131 577.02 263.131Z" fill="#6C63FF"/>
<path id="Vector_103" d="M567.268 261.754C567.268 261.754 550.88 297.03 563.61 296.435C576.34 295.839 567.268 261.754 567.268 261.754Z" fill="#6C63FF"/>
<path id="Vector_104" d="M560.103 264.625C560.103 264.625 525.279 302.206 528.466 306.164C531.653 310.122 560.103 264.625 560.103 264.625Z" fill="#6C63FF"/>
<path id="Vector_105" d="M548.595 234.637C548.595 234.637 538.629 211.474 510.555 214.753C482.48 218.032 548.595 234.637 548.595 234.637Z" fill="#6C63FF"/>
<path id="Vector_106" d="M525.311 234.523C525.311 234.523 485.162 231.768 488.082 238.656C491.002 245.543 525.311 234.523 525.311 234.523Z" fill="#6C63FF"/>
<path id="Vector_107" d="M535.531 209.039C535.531 209.039 533.341 199.396 529.691 201.462C526.041 203.528 535.531 209.039 535.531 209.039Z" fill="#6C63FF"/>
<path id="Vector_108" d="M573.126 218.297C573.126 218.297 583.143 178.581 578.603 178.435C574.063 178.29 573.126 218.297 573.126 218.297Z" fill="#6C63FF"/>
<path id="Vector_109" d="M619.359 223.871C619.359 223.871 623.739 213.54 628.119 216.295C632.499 219.05 619.359 223.871 619.359 223.871Z" fill="#6C63FF"/>
<path id="Vector_110" d="M577.75 315.478C577.75 315.478 571.91 356.115 582.86 355.426C593.81 354.738 577.75 315.478 577.75 315.478Z" fill="#6C63FF"/>
</g>
</g>
<defs>
<linearGradient id="paint0_linear" x1="1059.61" y1="230.435" x2="-21.39" y2="664.435" gradientUnits="userSpaceOnUse">
<stop stop-color="#23E0D5"/>
<stop offset="1" stop-color="#EB8F22"/>
</linearGradient>
<clipPath id="clip0">
<rect width="1130" height="709.435" fill="white"/>
</clipPath>
</defs>
</svg>
